<svg xmlns="http://www.w3.org/2000/svg" xmlns:xlink="http://www.w3.org/1999/xlink" id="Camada_1" x="0px" y="0px" viewBox="0 0 872.5 164.3" style="enable-background:new 0 0 872.5 164.3;" xml:space="preserve"><style type="text/css">	.st0{fill:#D9FF00;}</style><g>	<path class="st0" d="M26.3,73c4.4,0,7.7-0.8,9.9-2.5c2.1-1.7,3.5-4.7,4.1-9c1.4-9.9,2.7-16.7,3.9-20.4c2-6.4,5.4-10.8,10.2-13.3  c4.1-2.2,9.7-3.3,16.7-3.3l-0.7,14.9c-3.5,0-6.1,0.9-7.6,2.6c-1.6,1.7-2.6,4.2-2.9,7.5c-0.2,1.2-0.4,3-0.5,5.2  c-0.2,2.2-0.3,4.2-0.4,5.8s-0.4,3.5-0.9,5.6c-0.5,2.1-1.1,3.9-1.8,5.4s-1.8,2.9-3.2,4.3C51.7,77.2,50,78.3,48,79  c1.8,0.8,3.2,2,4.2,3.4s1.7,2.9,2,4.4c0.3,1.5,0.4,3.3,0.2,5.5c-0.1,2.1-0.4,4-0.7,5.7c-0.4,1.7-0.8,3.7-1.2,5.9s-0.8,4.1-1,5.5  c-0.4,2.9-0.1,5.2,0.9,6.8c1,1.6,3.3,2.4,6.7,2.4l-3.3,14.9c-3.6,0-6.7-0.3-9.4-0.8c-2.6-0.6-4.8-1.3-6.5-2.3c-1.7-1-3-2.2-4-3.9  c-0.9-1.6-1.6-3.3-2.1-5.1c-0.4-1.8-0.6-4-0.5-6.7c0.1-2.7,0.3-5.3,0.6-7.7c0.3-2.5,0.7-5.5,1.2-9.1c0.1-0.6,0.2-1,0.2-1.3  c0.6-4.4,0.1-7.5-1.5-9.1c-1.6-1.6-4.6-2.4-9.2-2.4L26.3,73z"></path>	<path class="st0" d="M122.1,29.5h75.8l-2.1,15.7h-63.9l-9.5,68.3h63.9l-2.3,15.6h-82.4l13.1-93c0.3-1.9,1.1-3.5,2.5-4.7  C118.6,30.1,120.2,29.5,122.1,29.5z M148.3,71.5h40.1l-2.1,15.6h-46.7l1.2-9.1c0.2-1.9,1-3.5,2.4-4.7  C144.7,72.1,146.3,71.5,148.3,71.5z"></path>	<path class="st0" d="M222,29.5h12l-10.8,77.2c-0.3,2.1,0,3.8,0.7,5s2,1.8,3.6,1.8h55.3c2.5,0,4.2-0.4,5-1.3  c0.9-0.9,1.5-2.7,1.8-5.5l9.9-70.6c0.3-1.9,1.1-3.5,2.5-4.7s3-1.9,4.9-1.9h12L307.8,109c-0.9,6.1-3.4,10.9-7.6,14.6  c-4.2,3.7-9.3,5.5-15.3,5.5h-63.3c-6.1,0-10.7-1.8-13.8-5.5s-4.3-8.5-3.4-14.5l10.2-72.9c0.3-1.9,1.1-3.5,2.5-4.7  C218.5,30.1,220.1,29.5,222,29.5z"></path>	<path class="st0" d="M419.1,45.2h-62.6c-3.3,0-5.4,2.2-6.1,6.7l-7.6,54.9c-0.3,2.1,0,3.8,0.7,5s1.9,1.8,3.5,1.8h69.2l-1.3,9.1  c-0.3,1.9-1.1,3.5-2.5,4.7c-1.4,1.2-3.1,1.8-5,1.8h-66.2c-6.1,0-10.7-1.8-13.8-5.5s-4.3-8.5-3.4-14.5l8.4-59.5  c0.9-6.1,3.4-10.9,7.5-14.6c4.1-3.7,9.2-5.5,15.2-5.5h72.7l-1.2,9.1c-0.2,1.9-1,3.5-2.4,4.7C422.7,44.5,421,45.2,419.1,45.2z"></path>	<path class="st0" d="M430.7,109l8.4-59.5c0.9-6.1,3.4-10.9,7.5-14.6c4.1-3.7,9.2-5.5,15.2-5.5h85.6L536.4,109  c-0.9,6.1-3.4,10.9-7.6,14.6c-4.2,3.7-9.3,5.5-15.3,5.5H448c-6.1,0-10.7-1.8-13.8-5.5C431,119.9,429.9,115,430.7,109z M449.6,106.7  c-0.3,2.1,0,3.8,0.7,5s1.9,1.8,3.5,1.8h57.6c2.5,0,4.2-0.4,5-1.3s1.4-2.7,1.8-5.5l7.7-54.9c0.4-2.8,0.3-4.6-0.3-5.4  c-0.6-0.8-2.2-1.2-4.7-1.2h-57.6c-3.3,0-5.4,2.2-6.1,6.7L449.6,106.7z"></path>	<path class="st0" d="M570.3,29.5h65c6.1,0,10.7,1.8,13.9,5.5c3.2,3.7,4.3,8.5,3.5,14.5l-8.4,59.5c-0.9,6.1-3.4,10.9-7.6,14.6  c-4.2,3.7-9.3,5.5-15.3,5.5h-39.5l1.2-9.1c0.3-1.9,1.1-3.5,2.5-4.7s3-1.8,4.8-1.8h29.7c1.6,0,3-0.6,4-1.8s1.7-2.8,2-5l7.6-54.9  c0.3-2.1,0.1-3.8-0.6-4.9c-0.7-1.2-1.9-1.7-3.5-1.7h-49.5l-11.8,83.9h-18.5l13.1-93c0.3-1.9,1.1-3.5,2.5-4.7  C566.7,30.1,568.4,29.5,570.3,29.5z"></path>	<path class="st0" d="M659,109l8.4-59.5c0.9-6.1,3.4-10.9,7.5-14.6c4.1-3.7,9.2-5.5,15.2-5.5h85.6L764.7,109  c-0.9,6.1-3.4,10.9-7.6,14.6c-4.2,3.7-9.3,5.5-15.3,5.5h-65.6c-6.1,0-10.7-1.8-13.8-5.5C659.2,119.9,658.1,115,659,109z   M677.8,106.7c-0.3,2.1,0,3.8,0.7,5s1.9,1.8,3.5,1.8h57.6c2.5,0,4.2-0.4,5-1.3s1.4-2.7,1.8-5.5l7.7-54.9c0.4-2.8,0.3-4.6-0.3-5.4  c-0.6-0.8-2.2-1.2-4.7-1.2h-57.6c-3.3,0-5.4,2.2-6.1,6.7L677.8,106.7z"></path>	<path class="st0" d="M851.3,73l-1.5,12c-4.5,0-7.9,0.8-10,2.4s-3.5,4.7-4.1,9.1c-1.4,9.8-2.6,16.4-3.5,19.7c-1.9,6.4-5,11-9.5,13.5  c-4.2,2.5-10.1,3.7-17.8,3.7l0.8-14.9c3.5,0,6-0.8,7.5-2.5c1.5-1.6,2.5-3.9,3-6.8c0.2-1.3,0.3-3.2,0.5-5.5s0.2-4.3,0.3-5.9  c0.1-1.7,0.4-3.5,0.8-5.7s1-3.9,1.8-5.5s1.8-3,3.3-4.4s3.2-2.5,5.3-3.4c-1.5-0.7-2.8-1.5-3.8-2.5c-1-1-1.7-2.3-2.1-3.7  s-0.6-2.8-0.7-4.2c-0.1-1.4,0-3,0.3-4.8c0.3-1.8,0.6-3.4,0.9-4.9c0.3-1.5,0.7-3.1,1-4.9c0.4-1.8,0.7-3.3,0.8-4.5  c0.2-2,0.2-3.7,0-5.2c-0.2-1.5-0.9-2.7-2.2-3.5s-3.1-1.3-5.5-1.3l3.3-14.9c2.5,0,4.8,0.1,6.9,0.4s3.9,0.7,5.4,1.3s2.9,1.3,4.1,1.9  c1.2,0.6,2.1,1.5,2.9,2.9c0.7,1.3,1.4,2.4,1.9,3.3c0.5,0.9,0.9,2.4,1,4.3c0.1,1.9,0.2,3.5,0.3,4.7c0,1.2-0.1,3.1-0.3,5.6  s-0.5,4.5-0.7,6c-0.2,1.5-0.5,3.7-0.9,6.7c-0.6,4.3-0.1,7.4,1.5,9C843.9,72.2,846.9,73,851.3,73z"></path></g></svg>